<svg id="Layer_1" data-name="Layer 1" xmlns="http://www.w3.org/2000/svg" width="35" height="35" viewBox="0 0 35 35"><defs><style>.cls-1{fill:#e32527;}</style></defs><title>fail</title><path class="cls-1" d="M60.73,30.5H35.27a4.79,4.79,0,0,0-4.77,4.77V60.73a4.79,4.79,0,0,0,4.77,4.77H60.73a4.79,4.79,0,0,0,4.77-4.77V35.27A4.79,4.79,0,0,0,60.73,30.5Zm1.59,30.23a1.6,1.6,0,0,1-1.59,1.59H35.27a1.6,1.6,0,0,1-1.59-1.59V35.27a1.6,1.6,0,0,1,1.59-1.59H60.73a1.6,1.6,0,0,1,1.59,1.59Zm-7.2-7.88a1.58,1.58,0,0,1,0,2.27,1.56,1.56,0,0,1-1.15.44,1.58,1.58,0,0,1-1.12-.48L48,50.27l-4.85,4.85a1.54,1.54,0,0,1-1.12.44,1.51,1.51,0,0,1-1.11-.48,1.58,1.58,0,0,1,0-2.27L45.73,48l-4.85-4.85a1.61,1.61,0,0,1,2.27-2.27L48,45.73l4.85-4.85a1.61,1.61,0,0,1,2.27,2.27L50.27,48Z" transform="translate(-30.5 -30.5)"/></svg>