<svg xmlns="http://www.w3.org/2000/svg" viewBox="0 0 96 96">
    <path d="M80 4H16C9.4 4 4 9.4 4 16v64c0 6.6 5.4 12 12 12h64c6.6 0 12-5.4 12-12V16c0-6.6-5.4-12-12-12zm4 76c0 2.2-1.8 4-4 4H16c-2.2 0-4-1.8-4-4V16c0-2.2 1.8-4 4-4h64c2.2 0 4 1.8 4 4v64z"/>
    <path d="M65.9 60.2c1.6 1.6 1.6 4.1 0 5.7-.8.8-1.8 1.1-2.9 1.1-1 0-2-.4-2.8-1.2L48 53.7 35.8 65.9C35 66.7 34 67 33 67c-1 0-2.1-.4-2.8-1.2-1.6-1.6-1.6-4.1 0-5.7L42.3 48 30.1 35.8c-1.6-1.6-1.6-4.1 0-5.7s4.1-1.6 5.7 0L48 42.3l12.2-12.2c1.6-1.6 4.1-1.6 5.7 0s1.6 4.1 0 5.7L53.7 48l12.2 12.2z"/>
</svg>
