<svg id="Layer_1" data-name="Layer 1" xmlns="http://www.w3.org/2000/svg" width="35" height="35" viewBox="0 0 35 35"><defs><style>.cls-1{fill:#f7931d;}</style></defs><title>if-square-check-226561-copy-8</title><path class="cls-1" d="M60.73,30.5H35.27a4.79,4.79,0,0,0-4.77,4.77V60.73a4.79,4.79,0,0,0,4.77,4.77H60.73a4.79,4.79,0,0,0,4.77-4.77V35.27A4.79,4.79,0,0,0,60.73,30.5Zm1.59,30.23a1.6,1.6,0,0,1-1.59,1.59H35.27a1.6,1.6,0,0,1-1.59-1.59V35.27a1.6,1.6,0,0,1,1.59-1.59H60.73a1.6,1.6,0,0,1,1.59,1.59ZM55.32,43a1.58,1.58,0,0,0-2.27,0l-6.76,6.76-3.38-3.38a1.58,1.58,0,0,0-2.27,0,1.6,1.6,0,0,0,0,2.27l4.5,4.49a1.57,1.57,0,0,0,2.26,0h0l7.88-7.87a1.64,1.64,0,0,0,0-2.27Z" transform="translate(-30.5 -30.5)"/></svg>