<svg xmlns="http://www.w3.org/2000/svg" width="50" height="32.88" viewBox="0 0 50 32.88"><defs><style>.cls-1{fill:#fff;}</style></defs><title>Asset 1</title><g id="Layer_2" data-name="Layer 2"><g id="Layer_1-2" data-name="Layer 1"><path class="cls-1" d="M50,30.45v-.33c0-.11,0-.22,0-.33v-.13h0v-.09h0V29.4l0-.55v-.14l0-.18,0-.35,0-.36v-.18l0-.16c-.06-.44-.12-.86-.19-1.27,0-.21-.07-.41-.11-.61L49.37,25c-.07-.38-.17-.72-.24-1.05l-.07-.23L49,23.52c0-.14-.08-.28-.11-.41s-.07-.26-.11-.37l-.1-.3-.11-.34a.25.25,0,0,0-.32-.17l-8.45,2.41a.25.25,0,0,0-.18.29l0,.17,0,.21a2.17,2.17,0,0,1,0,.25l0,.28a.78.78,0,0,1,0,.16l0,.16c0,.22.05.46.07.71l0,.39c0,.13,0,.27,0,.4,0,.28,0,.56,0,.85V29c0,.19,0,.37,0,.56v.15h0v-.08h0v.08l0,.22,0,.21,0,.22c0,.14,0,.27,0,.41l-.06.39-.06.38c0,.12,0,.24-.07.35s0,.23-.07.33-.07.3-.1.45l0,.11v.06H49.7a.26.26,0,0,0,.26-.25h0L50,32V30.45ZM47.31,19.6a.26.26,0,0,0,.14-.34s0,0,0,0l-.1-.21a2.56,2.56,0,0,0-.11-.24l-.18-.37c-.06-.13-.13-.27-.21-.41a2.12,2.12,0,0,0-.11-.21l-.11-.21-.25-.45c-.09-.16-.18-.32-.28-.48L46,16.42l-.15-.25-.32-.51c-.24-.34-.46-.7-.72-1l-.19-.27-.09-.13-.1-.13-.4-.52-.41-.5-.21-.25-.21-.24-.21-.24-.21-.24-.43-.45-.42-.43-.41-.4-.39-.37-.38-.33-.36-.31L40,9.54l-.29-.23-.24-.19-.28-.21a.26.26,0,0,0-.36,0l-4.53,5.5a.26.26,0,0,0,0,.35l.14.13.15.16.18.19.21.22.21.24.24.27.24.3a3.76,3.76,0,0,1,.25.31l.26.33.26.36.13.18.12.18.13.18L37,18l.24.39.23.39.06.09,0,.1.11.2c.15.25.27.52.4.77l.17.38.09.18.08.18c.05.12.1.23.14.34l.13.33.06.15a.88.88,0,0,1,.05.15l.09.24.07.21.08.25.08.22a.25.25,0,0,0,.32.16h0l7.87-3.16ZM24.2,9.78l.23,0,.27,0,.3.06.29.05,2.86-5.85-.42-.07-.28,0-.27,0-.53-.06-.5,0-.45,0-.41,0-.36,0H24.3A.25.25,0,0,0,24,4l-.26,5.45a.25.25,0,0,0,.22.27l.2,0Zm7.7,3,.22.16.19.13.11.08.1.07.18.14a.28.28,0,0,0,.37,0h0l3.73-5.7a.26.26,0,0,0-.07-.36h0l-.2-.11-.11-.07L36.28,7l-.34-.19-.39-.22-.42-.2-.45-.22-.49-.22-.52-.23-.55-.23L33,5.43l-1.61,7,.26.17.27.19Zm-12.72-3,.22,0,.21,0,.4,0,.37,0h1.38A.27.27,0,0,0,22,9.34h0l-.34-5.14A.26.26,0,0,0,21.41,4h0l-.23,0-.27,0-.37.06-.42.06-.23,0-.22,0-.48.1-.51.11-.26.06-.27.07-.55.15L17,4.87,16.72,5l-.29.1-.29.1-.29.1-.58.22-.56.24-.29.12L14.14,6l-.27.13-.27.13-.52.26c-.17.08-.34.18-.5.27s-.32.17-.46.26l-.44.26-.41.25-.36.24L10.58,8l-.28.19-.24.18-.25.18a.27.27,0,0,0-.06.36L11.88,12a.27.27,0,0,0,.35.08l.19-.1.21-.12.25-.13.28-.15.32-.15.35-.16.38-.17.4-.17c.14-.05.28-.12.42-.16l.44-.16.23-.08.23-.07.23-.07.24-.07.46-.13.48-.12.23,0,.24-.05L18,10l.23,0,.46-.08.45-.07ZM4.64,13.81l-.17.24-.16.24a2.2,2.2,0,0,0-.17.25c-.11.16-.22.32-.32.49l-.31.51-.08.12-.08.13L3.21,16c-.2.34-.37.68-.55,1l-.23.49-.12.24-.1.23-.2.45-.18.42c-.05.14-.11.26-.16.39l-.13.36-.11.31-.09.27-.09.27a.27.27,0,0,0,.15.33l2,.76a.26.26,0,0,0,.33-.13l.11-.22L3.93,21l.13-.27.16-.3.17-.32.21-.36.22-.37.12-.19L5.06,19l.26-.4c.19-.27.37-.55.58-.82l.15-.2.07-.1.08-.1.32-.4.33-.39L7,16.39l.16-.19L7.35,16l.17-.18.34-.34a3.51,3.51,0,0,1,.34-.33l.32-.31.32-.29.3-.25.27-.24a2.54,2.54,0,0,0,.24-.2l.22-.16.1-.08.1-.08.19-.14a.27.27,0,0,0,.05-.37h0L8,10.38a.25.25,0,0,0-.36,0h0l-.17.17-.09.09-.1.1L7.05,11l-.28.29-.3.31-.31.35-.33.38-.33.41a5,5,0,0,0-.35.43l-.34.45a2.11,2.11,0,0,0-.17.22ZM.54,23.1l-.05.22a2.56,2.56,0,0,0,0,.27q0,.15-.06.33l-.06.38,0,.2,0,.21c0,.29-.09.6-.12.93l-.05.5c0,.18,0,.35,0,.54,0,.35,0,.73,0,1.1v.28c0,.19,0,.38,0,.57v.28l0,.58v.29l0,.27,0,.27,0,.28,0,.28V31l0,.13.07.53.07.49c0,.16,0,.32.08.47v0a.28.28,0,0,0,.26.21h.7a.26.26,0,0,0,.26-.26v0s0-.08,0-.12,0-.29,0-.45l0-.47V29.65h0V29.5l0-.54v-.13l0-.13,0-.26,0-.26,0-.14,0-.13c.05-.35.1-.69.16-1q0-.25.09-.48l.1-.46c.07-.3.14-.57.21-.83l0-.19.06-.17.09-.32.09-.29.08-.25.08-.21a.26.26,0,0,0-.16-.33h0L.86,22.9a.26.26,0,0,0-.32.18v0Zm19.85,9.09a4,4,0,0,0,1.76.41,4,4,0,0,0,3.64-2.27,4.48,4.48,0,0,0,.3-.87l4.09-17.72L31.73,5l1-4.18A.66.66,0,0,0,32,0a.67.67,0,0,0-.59.37l-2,4L26.6,10.3,18.53,26.79a4,4,0,0,0,1.86,5.4Zm1.92-5.71a2,2,0,1,1-2,2A2,2,0,0,1,22.31,26.48Z"/></g></g></svg>