<svg id="Layer_1" data-name="Layer 1" xmlns="http://www.w3.org/2000/svg" width="32" height="33.95" viewBox="0 0 32 33.95"><defs><style>.cls-1{fill:#fff;}</style></defs><title>share</title><path class="cls-1" d="M250.72,245.64a6.07,6.07,0,0,0-4.8,2.36l-9.33-5.21a6,6,0,0,0,.34-2,6.15,6.15,0,0,0-.34-2l9.31-5.2a6,6,0,1,0-.91-1.68l-9.31,5.21a6,6,0,0,0-4.81-2.39,6.07,6.07,0,1,0,4.83,9.75l9.31,5.21a6.21,6.21,0,0,0-.35,2,6.07,6.07,0,1,0,6.06-6.06Zm0-19.9a4.17,4.17,0,1,1-4.16,4.16A4.17,4.17,0,0,1,250.72,225.74ZM230.88,245a4.17,4.17,0,1,1,4.16-4.17A4.17,4.17,0,0,1,230.88,245Zm19.84,10.9a4.17,4.17,0,1,1,4.17-4.16A4.17,4.17,0,0,1,250.72,255.86Z" transform="translate(-224.8 -223.83)"/></svg>